<svg width="53" height="53" viewBox="0 0 53 53" fill="none" xmlns="http://www.w3.org/2000/svg">
<rect width="53" height="53" rx="26.5" fill="white"/>
<path d="M26.5257 53C40.8681 53 53 40.9709 53 26.4743C53 11.9777 41.0223 0 26.5257 0C11.9777 0 0 11.9777 0 26.4743C0 41.0223 11.9777 53 26.5257 53ZM23.4413 42.1018C22.4132 42.1018 21.2308 41.742 20.4597 40.8681L10.7953 30.3298C10.2813 29.7643 9.92144 28.7362 9.92144 27.8623C9.92144 25.6004 11.6178 24.161 13.6227 24.161C14.805 24.161 15.7304 24.6237 16.3986 25.3434L23.1843 32.7973L36.2929 14.6508C37.0126 13.6741 38.0921 13.0572 39.3773 13.0572C41.3822 13.0572 43.13 14.6508 43.13 16.7071C43.13 17.3754 42.8729 18.1465 42.3589 18.8661L26.4743 40.7139C25.8574 41.5878 24.6751 42.1018 23.4413 42.1018Z" fill="#14D21E"/>
</svg>
