<svg width="256" height="309" viewBox="0 0 256 309" fill="none" xmlns="http://www.w3.org/2000/svg">
<path d="M127.924 309C130.649 309 134.737 308.089 138.673 305.963C225.722 258.436 256 236.419 256 181.148V66.5071C256 48.286 249.036 41.7568 233.746 35.2275C217.093 28.0909 160.473 8.35135 144.123 2.73317C138.976 1.0629 133.223 0 127.924 0C122.777 0 116.873 1.36658 111.877 2.73317C95.5269 7.44029 38.9072 28.2428 22.2543 35.2275C6.96393 41.6049 0 48.286 0 66.5071V181.148C0 236.419 30.2779 258.133 117.327 305.963C121.263 308.089 125.351 309 127.924 309ZM127.924 276.809C125.805 276.809 123.685 276.05 119.295 273.317C50.2614 231.105 28.764 219.716 28.764 175.53V71.3661C28.764 65.8998 29.8238 63.774 34.0627 61.9518C56.4684 52.9931 99.9172 38.5681 119.901 30.6722C123.383 29.4575 125.805 29.002 127.924 29.002C130.195 29.002 132.617 29.4575 136.099 30.6722C156.083 38.5681 199.229 53.9042 221.786 61.9518C226.176 63.6221 227.236 65.8998 227.236 71.3661V175.53C227.236 220.02 204.83 232.016 136.705 273.317C132.315 276.05 130.195 276.809 127.924 276.809ZM111.726 218.654C117.327 218.654 122.02 215.92 125.199 210.91L193.476 104.316C195.596 101.127 197.261 97.483 197.261 93.9907C197.261 86.3985 190.6 81.3877 183.333 81.3877C178.791 81.3877 174.704 83.969 171.525 89.1317L111.271 185.552L83.113 149.869C79.4796 145.162 75.8462 143.491 71.4559 143.491C63.8865 143.491 57.9823 149.565 57.9823 157.157C57.9823 160.801 59.3448 164.142 61.9184 167.483L97.6464 211.061C101.734 216.224 106.124 218.654 111.726 218.654Z" fill="url(#paint0_linear_700_169)"/>
<path d="M127.924 309C130.649 309 134.737 308.089 138.673 305.963C225.722 258.436 256 236.419 256 181.148V66.5071C256 48.286 249.036 41.7568 233.746 35.2275C217.093 28.0909 160.473 8.35135 144.123 2.73317C138.976 1.0629 133.223 0 127.924 0C122.777 0 116.873 1.36658 111.877 2.73317C95.5269 7.44029 38.9072 28.2428 22.2543 35.2275C6.96393 41.6049 0 48.286 0 66.5071V181.148C0 236.419 30.2779 258.133 117.327 305.963C121.263 308.089 125.351 309 127.924 309ZM127.924 276.809C125.805 276.809 123.685 276.05 119.295 273.317C50.2614 231.105 28.764 219.716 28.764 175.53V71.3661C28.764 65.8998 29.8238 63.774 34.0627 61.9518C56.4684 52.9931 99.9172 38.5681 119.901 30.6722C123.383 29.4575 125.805 29.002 127.924 29.002C130.195 29.002 132.617 29.4575 136.099 30.6722C156.083 38.5681 199.229 53.9042 221.786 61.9518C226.176 63.6221 227.236 65.8998 227.236 71.3661V175.53C227.236 220.02 204.83 232.016 136.705 273.317C132.315 276.05 130.195 276.809 127.924 276.809ZM111.726 218.654C117.327 218.654 122.02 215.92 125.199 210.91L193.476 104.316C195.596 101.127 197.261 97.483 197.261 93.9907C197.261 86.3985 190.6 81.3877 183.333 81.3877C178.791 81.3877 174.704 83.969 171.525 89.1317L111.271 185.552L83.113 149.869C79.4796 145.162 75.8462 143.491 71.4559 143.491C63.8865 143.491 57.9823 149.565 57.9823 157.157C57.9823 160.801 59.3448 164.142 61.9184 167.483L97.6464 211.061C101.734 216.224 106.124 218.654 111.726 218.654Z" fill="black" fill-opacity="0.2"/>
<path d="M127.924 309C130.649 309 134.737 308.089 138.673 305.963C225.722 258.436 256 236.419 256 181.148V66.5071C256 48.286 249.036 41.7568 233.746 35.2275C217.093 28.0909 160.473 8.35135 144.123 2.73317C138.976 1.0629 133.223 0 127.924 0C122.777 0 116.873 1.36658 111.877 2.73317C95.5269 7.44029 38.9072 28.2428 22.2543 35.2275C6.96393 41.6049 0 48.286 0 66.5071V181.148C0 236.419 30.2779 258.133 117.327 305.963C121.263 308.089 125.351 309 127.924 309ZM127.924 276.809C125.805 276.809 123.685 276.05 119.295 273.317C50.2614 231.105 28.764 219.716 28.764 175.53V71.3661C28.764 65.8998 29.8238 63.774 34.0627 61.9518C56.4684 52.9931 99.9172 38.5681 119.901 30.6722C123.383 29.4575 125.805 29.002 127.924 29.002C130.195 29.002 132.617 29.4575 136.099 30.6722C156.083 38.5681 199.229 53.9042 221.786 61.9518C226.176 63.6221 227.236 65.8998 227.236 71.3661V175.53C227.236 220.02 204.83 232.016 136.705 273.317C132.315 276.05 130.195 276.809 127.924 276.809ZM111.726 218.654C117.327 218.654 122.02 215.92 125.199 210.91L193.476 104.316C195.596 101.127 197.261 97.483 197.261 93.9907C197.261 86.3985 190.6 81.3877 183.333 81.3877C178.791 81.3877 174.704 83.969 171.525 89.1317L111.271 185.552L83.113 149.869C79.4796 145.162 75.8462 143.491 71.4559 143.491C63.8865 143.491 57.9823 149.565 57.9823 157.157C57.9823 160.801 59.3448 164.142 61.9184 167.483L97.6464 211.061C101.734 216.224 106.124 218.654 111.726 218.654Z" fill="black" fill-opacity="0.2"/>
<defs>
<linearGradient id="paint0_linear_700_169" x1="-28.5825" y1="154.5" x2="297.01" y2="154.5" gradientUnits="userSpaceOnUse">
<stop stop-color="#1AE222"/>
<stop offset="1" stop-color="#00A310"/>
</linearGradient>
</defs>
</svg>
