<svg width="41" height="35" viewBox="0 0 41 35" fill="none" xmlns="http://www.w3.org/2000/svg">
<g clip-path="url(#clip0_33_190)">
<path fill-rule="evenodd" clip-rule="evenodd" d="M21.848 4.31065C21.4248 4.24487 20.9926 4.20979 20.5506 4.20979C20.0765 4.20979 19.6105 4.25013 19.1596 4.32643C18.7971 3.63884 18.3364 3.00912 17.7935 2.45483C16.314 0.94194 14.2337 0 11.9328 0C7.4444 0 3.79976 3.58007 3.79976 7.9872C3.79976 10.5569 5.03815 12.8442 6.95868 14.3063C5.82118 14.8491 4.77476 15.578 3.86315 16.4725C1.70958 18.588 0.499756 21.4576 0.499756 24.4492V26.5804C0.499756 28.9055 2.41851 30.7902 4.78547 30.7902H9.01672C9.01672 33.1152 10.9355 35 13.3024 35H27.6971C30.064 35 31.9828 33.1152 31.9828 30.7902H36.214C38.581 30.7902 40.4998 28.9055 40.4998 26.5804V24.4492C40.4998 21.4576 39.2899 18.588 37.1373 16.4734C36.2257 15.578 35.1783 14.85 34.0417 14.3071C35.9614 12.8451 37.2006 10.5578 37.2006 7.98807C37.1998 3.58007 33.5551 0 29.0667 0C26.7649 0 24.6855 0.94194 23.2051 2.45396C22.6667 3.00386 22.2078 3.62831 21.848 4.31065ZM29.1248 28.659V30.7902C29.1248 31.5646 28.4864 32.1935 27.6962 32.1935H13.3024C12.5123 32.1935 11.8739 31.5646 11.8739 30.7902V28.659C11.8739 26.4112 12.7828 24.2554 14.3998 22.6671C16.0185 21.0788 18.2114 20.1859 20.4998 20.1859C22.7881 20.1859 24.981 21.0788 26.5998 22.6671C28.2167 24.2554 29.1256 26.4112 29.1256 28.659H29.1248ZM31.9623 27.9837H36.214C37.0024 27.9837 37.6426 27.3549 37.6426 26.5804V24.4492C37.6426 22.2014 36.7337 20.0456 35.1167 18.4573C33.498 16.869 31.3042 15.9761 29.0167 15.9761H29.0149C28.5578 15.9761 28.1033 16.0112 27.656 16.0814C27.1185 17.0268 26.3899 17.8565 25.523 18.5161C26.6605 19.0589 27.7087 19.7878 28.6185 20.6823C30.6096 22.6381 31.7944 25.2377 31.9614 27.9837H31.9623ZM13.4551 16.0998C12.9721 16.0174 12.4792 15.9761 11.9837 15.9761H11.9819C9.6944 15.9761 7.50065 16.869 5.8819 18.4573C4.26493 20.0456 3.35601 22.2014 3.35601 24.4492V26.5804C3.35601 27.3549 3.99618 27.9837 4.78458 27.9837H9.03636C9.20333 25.2377 10.3881 22.639 12.3792 20.6823C13.306 19.7702 14.3765 19.0317 15.5381 18.4845C14.6935 17.8346 13.9837 17.0233 13.4551 16.0989V16.0998ZM20.5506 7.01631C23.4623 7.01631 25.8248 9.33871 25.8248 12.197C25.8248 15.0553 23.4623 17.3794 20.5506 17.3794C17.639 17.3794 15.2765 15.057 15.2765 12.197C15.2765 9.33696 17.639 7.01631 20.5506 7.01631ZM16.4435 5.30433C16.2408 4.9772 16.0024 4.67286 15.7337 4.39923C14.7739 3.4187 13.4248 2.80653 11.9319 2.80653C9.02029 2.80653 6.65601 5.12892 6.65601 7.9872C6.65601 10.8455 9.02029 13.1696 11.9319 13.1696C12.1149 13.1696 12.2962 13.16 12.4748 13.1416C12.4373 12.8328 12.4194 12.5171 12.4194 12.197C12.4194 9.25978 14.0364 6.69181 16.4435 5.30433ZM28.6248 13.1512C28.7703 13.1626 28.9176 13.1696 29.0658 13.1696C31.9774 13.1696 34.3417 10.8472 34.3417 7.9872C34.3417 5.12717 31.9774 2.80653 29.0658 2.80653C27.573 2.80653 26.2248 3.4187 25.264 4.39923C25.0069 4.66146 24.7783 4.95089 24.581 5.26048C27.0292 6.63743 28.681 9.22908 28.681 12.197C28.681 12.5197 28.6614 12.8381 28.6239 13.1512H28.6248Z" fill="white"/>
</g>
<defs>
<clipPath id="clip0_33_190">
<rect width="40" height="35" fill="white" transform="translate(0.499756)"/>
</clipPath>
</defs>
</svg>
