<svg width="26" height="27" viewBox="0 0 26 27" fill="none" xmlns="http://www.w3.org/2000/svg">
<path d="M12.9294 26.7748C20.0193 26.7748 25.8713 20.9228 25.8713 13.8454C25.8713 6.768 20.0068 0.916016 12.9169 0.916016C5.83948 0.916016 0 6.768 0 13.8454C0 20.9228 5.85199 26.7748 12.9294 26.7748ZM12.9169 21.1479C12.5793 21.1479 12.3292 20.8978 12.3292 20.5477V19.6599C10.4661 19.5098 9.09059 18.5345 8.71546 17.159C8.66544 16.9965 8.64043 16.8464 8.64043 16.6964C8.64043 16.1712 9.00306 15.8086 9.54074 15.8086C9.99089 15.8086 10.291 16.0462 10.4786 16.5088C10.6786 17.2716 11.2913 17.8343 12.3292 17.9843V14.5832L12.1041 14.5331C9.94088 14.033 8.81549 13.0326 8.81549 11.3446C8.81549 9.51894 10.2785 8.26851 12.3292 8.08095V7.20565C12.3292 6.84303 12.5793 6.60545 12.9169 6.60545C13.2545 6.60545 13.5171 6.85553 13.5171 7.20565V8.08095C15.2677 8.25601 16.5681 9.21884 16.9182 10.5568C16.9558 10.7068 16.9933 10.8569 16.9933 11.0069C16.9933 11.5071 16.6306 11.8697 16.1055 11.8697C15.6428 11.8697 15.3427 11.6071 15.1551 11.182C14.9051 10.4192 14.3424 9.93158 13.5171 9.78153V12.9951L13.8047 13.0576C16.068 13.4828 17.2058 14.5206 17.2058 16.2962C17.2058 18.2719 15.6303 19.4848 13.5171 19.6724V20.5477C13.5171 20.8978 13.2545 21.1479 12.9169 21.1479ZM12.3292 12.695V9.76902C11.3414 9.93158 10.7411 10.5193 10.7411 11.2195C10.7411 11.9198 11.2038 12.3699 12.2417 12.67L12.3292 12.695ZM13.5171 14.8708V17.9843C14.705 17.8468 15.2927 17.2466 15.2927 16.4338C15.2927 15.7085 14.8801 15.2334 13.7547 14.9333L13.5171 14.8708Z" fill="#F7B100"/>
</svg>
