<svg width="27" height="23" viewBox="0 0 27 23" fill="none" xmlns="http://www.w3.org/2000/svg">
<path d="M12.0286 0.826303C12.1508 0.578302 12.34 0.369464 12.5747 0.223431C12.8095 0.0773974 13.0805 0 13.357 0C13.6334 0 13.9044 0.0773974 14.1392 0.223431C14.3739 0.369464 14.5631 0.578302 14.6853 0.826303L17.5435 6.61667L23.9366 7.54668C24.2101 7.5864 24.4671 7.70187 24.6784 7.88004C24.8897 8.0582 25.0469 8.29194 25.1323 8.55482C25.2176 8.8177 25.2277 9.09923 25.1614 9.36755C25.0951 9.63587 24.955 9.88027 24.757 10.0731L20.1306 14.581L21.2235 20.9489C21.2702 21.2213 21.2398 21.5012 21.1356 21.7572C21.0315 22.0131 20.8578 22.2348 20.6343 22.3972C20.4107 22.5596 20.1462 22.6562 19.8706 22.6761C19.595 22.696 19.3193 22.6384 19.0747 22.5098L13.3584 19.5036L7.63915 22.5098C7.39451 22.6381 7.11885 22.6954 6.84334 22.6753C6.56783 22.6551 6.30344 22.5583 6.08006 22.3958C5.85668 22.2333 5.68322 22.0115 5.57927 21.7556C5.47532 21.4996 5.44503 21.2197 5.49183 20.9474L6.58326 14.581L1.95689 10.0731C1.75889 9.88027 1.61881 9.63587 1.55249 9.36755C1.48617 9.09923 1.49627 8.8177 1.58164 8.55482C1.667 8.29194 1.82423 8.0582 2.03554 7.88004C2.24685 7.70187 2.5038 7.5864 2.77732 7.54668L9.17041 6.61815L12.0286 0.824822V0.826303ZM5.04756 15.32C5.10836 15.3959 5.1536 15.4831 5.1807 15.5765C5.2078 15.6699 5.21623 15.7678 5.20551 15.8645C5.19478 15.9611 5.16511 16.0548 5.11819 16.14C5.07126 16.2252 5.00801 16.3003 4.93205 16.3611L1.22977 19.3229C1.15416 19.3865 1.06657 19.4344 0.972164 19.4637C0.877757 19.493 0.778444 19.5031 0.68008 19.4934C0.581715 19.4837 0.486291 19.4543 0.399432 19.4072C0.312573 19.36 0.236039 19.2959 0.17434 19.2187C0.112642 19.1415 0.0670289 19.0527 0.0401905 18.9575C0.013352 18.8624 0.00583137 18.7629 0.018072 18.6648C0.0303126 18.5667 0.0620667 18.4721 0.111462 18.3865C0.160857 18.3008 0.226894 18.226 0.305679 18.1663L4.00796 15.2045C4.16122 15.0821 4.35675 15.0256 4.55164 15.0473C4.74654 15.0689 4.92489 15.167 5.04756 15.32ZM4.93205 4.09912C5.01314 4.15794 5.08145 4.2326 5.13284 4.31859C5.18424 4.40458 5.21765 4.5001 5.23106 4.59938C5.24447 4.69866 5.23759 4.79962 5.21085 4.89617C5.1841 4.99271 5.13805 5.08282 5.07547 5.16104C5.01289 5.23927 4.93508 5.30398 4.84677 5.35127C4.75845 5.39855 4.66146 5.42742 4.56166 5.43614C4.46186 5.44485 4.36133 5.43322 4.26616 5.40195C4.17098 5.37068 4.08314 5.32043 4.00796 5.25423L0.305679 2.29241C0.224589 2.23358 0.156278 2.15892 0.104881 2.07293C0.053484 1.98694 0.0200703 1.89142 0.00666221 1.79214C-0.00674591 1.69286 0.000130487 1.5919 0.0268751 1.49536C0.0536196 1.39881 0.0996763 1.3087 0.162257 1.23048C0.224838 1.15225 0.302641 1.08754 0.390958 1.04025C0.479275 0.992968 0.576268 0.964097 0.676066 0.955385C0.775865 0.946674 0.876394 0.958304 0.971567 0.989572C1.06674 1.02084 1.15458 1.07109 1.22977 1.13729L4.93205 4.09912ZM21.6619 15.3215C21.6012 15.3975 21.556 15.4847 21.5291 15.5782C21.5021 15.6717 21.4938 15.7696 21.5046 15.8662C21.5155 15.9629 21.5453 16.0565 21.5924 16.1417C21.6394 16.2268 21.7028 16.3019 21.7789 16.3625L25.4812 19.3244C25.5568 19.388 25.6444 19.4359 25.7388 19.4652C25.8332 19.4945 25.9325 19.5046 26.0309 19.4948C26.1292 19.4851 26.2246 19.4558 26.3115 19.4086C26.3984 19.3615 26.4749 19.2974 26.5366 19.2202C26.5983 19.1429 26.6439 19.0542 26.6707 18.959C26.6976 18.8639 26.7051 18.7644 26.6929 18.6663C26.6806 18.5682 26.6489 18.4736 26.5995 18.3879C26.5501 18.3023 26.484 18.2275 26.4053 18.1678L22.703 15.2059C22.627 15.1451 22.5399 15.0999 22.4465 15.0728C22.353 15.0457 22.2552 15.0373 22.1585 15.048C22.0618 15.0587 21.9682 15.0884 21.883 15.1353C21.7978 15.1822 21.7227 15.2455 21.6619 15.3215ZM21.7789 4.09912C21.636 4.2249 21.5471 4.40085 21.5306 4.59047C21.514 4.78008 21.5711 4.96879 21.69 5.11742C21.8089 5.26604 21.9805 5.36318 22.1691 5.38865C22.3577 5.41413 22.5489 5.36599 22.703 5.25423L26.4053 2.29241C26.4864 2.23358 26.5547 2.15892 26.6061 2.07293C26.6575 1.98694 26.6909 1.89142 26.7043 1.79214C26.7177 1.69286 26.7108 1.5919 26.6841 1.49536C26.6573 1.39881 26.6113 1.3087 26.5487 1.23048C26.4861 1.15225 26.4083 1.08754 26.32 1.04025C26.2317 0.992968 26.1347 0.964097 26.0349 0.955385C25.9351 0.946674 25.8345 0.958304 25.7394 0.989572C25.6442 1.02084 25.5564 1.07109 25.4812 1.13729L21.7789 4.09912Z" fill="#E21A1A"/>
</svg>
