<svg width="26" height="26" viewBox="0 0 26 26" fill="none" xmlns="http://www.w3.org/2000/svg">
<path d="M12.9937 26C20.1189 26 26 20.1189 26 12.9937C26 5.8811 20.1063 0 12.9812 0C5.86854 0 0 5.8811 0 12.9937C0 20.1189 5.8811 26 12.9937 26ZM6.77332 12.0261V10.6187C6.77332 9.82697 7.22571 9.46254 7.99227 9.46254H9.26148C8.88449 9.11068 8.68342 8.62059 8.68342 8.06767C8.68342 6.79845 9.67617 5.89367 10.9328 5.89367C11.8753 5.89367 12.667 6.42146 12.9937 7.37651C13.3079 6.42146 14.0996 5.89367 15.042 5.89367C16.2987 5.89367 17.2914 6.79845 17.2914 8.06767C17.2914 8.62059 17.0904 9.11068 16.7134 9.46254H17.9826C18.7743 9.46254 19.2015 9.82697 19.2015 10.6187V12.0261C19.2015 12.7298 18.812 13.0565 18.0957 13.0565H13.5843V9.46254H12.3905V8.58289C12.3905 7.67811 11.7873 7.08748 11.0459 7.08748C10.3673 7.08748 9.87724 7.51474 9.87724 8.18076C9.87724 8.88449 10.4553 9.46254 11.4355 9.46254H12.3905V13.0565H7.87917C7.17545 13.0565 6.77332 12.7298 6.77332 12.0261ZM14.5394 9.46254C15.5196 9.46254 16.0976 8.88449 16.0976 8.18076C16.0976 7.51474 15.6075 7.08748 14.929 7.08748C14.1875 7.08748 13.5843 7.67811 13.5843 8.58289V9.46254H14.5394ZM7.65297 17.7438V13.8357H12.3905V19.4152H9.37458C8.29386 19.4152 7.65297 18.8246 7.65297 17.7438ZM13.5843 19.4152V13.8357H18.3219V17.7438C18.3219 18.8246 17.6936 19.4152 16.6003 19.4152H13.5843Z" fill="#E3E3E3"/>
</svg>
