<svg width="16" height="16" viewBox="0 0 16 16" fill="none" xmlns="http://www.w3.org/2000/svg">
<path fill-rule="evenodd" clip-rule="evenodd" d="M8.06895 15.0534C12.2258 15.0534 15.5957 11.6836 15.5957 7.52672C15.5957 3.36983 12.2258 0 8.06895 0C3.91206 0 0.542236 3.36983 0.542236 7.52672C0.542236 11.6836 3.91206 15.0534 8.06895 15.0534ZM5.01191 10.9873H11.0391C11.2731 10.9878 11.4994 10.9031 11.6754 10.749C11.8514 10.5949 11.9652 10.3819 11.9954 10.15L12.6484 5.33707C12.6654 5.2176 12.6446 5.09582 12.5887 4.98882C12.5329 4.88182 12.4449 4.79498 12.3372 4.74051C12.2294 4.68603 12.1073 4.66666 11.988 4.68511C11.8686 4.70356 11.7581 4.7589 11.6718 4.84336L10.5941 5.83944C10.5369 5.89273 10.4695 5.93387 10.3959 5.96036C10.3223 5.98685 10.2442 5.99815 10.1661 5.99356C10.088 5.98897 10.0117 5.96859 9.94174 5.93366C9.87178 5.89874 9.80965 5.84998 9.7591 5.79036L8.46467 4.2717C8.41043 4.20732 8.34276 4.15556 8.2664 4.12006C8.19003 4.08455 8.10683 4.06615 8.0226 4.06615C7.93838 4.06615 7.85517 4.08455 7.77881 4.12006C7.70245 4.15556 7.63478 4.20732 7.58053 4.2717L6.29189 5.79036C6.24087 5.85092 6.17792 5.90035 6.10697 5.93558C6.03602 5.97081 5.95858 5.99109 5.87946 5.99515C5.80034 5.99921 5.72122 5.98697 5.64704 5.95919C5.57285 5.93141 5.50517 5.88868 5.4482 5.83366L4.37048 4.83759C4.28338 4.75593 4.17311 4.70324 4.05481 4.68677C3.93652 4.6703 3.81603 4.69086 3.70991 4.74562C3.6038 4.80038 3.51727 4.88665 3.46222 4.99256C3.40718 5.09848 3.38633 5.21883 3.40255 5.33707L4.05554 10.1529C4.08641 10.3843 4.20047 10.5965 4.37645 10.7501C4.55243 10.9036 4.7783 10.9879 5.01191 10.9873Z" fill="#EFBC84"/>
</svg>
