<svg width="25" height="24" viewBox="0 0 25 24" fill="none" xmlns="http://www.w3.org/2000/svg">
<path d="M12.5 0C5.60717 0 0 5.22512 0 11.6483C0 18.0715 5.60717 23.2966 12.5 23.2966C19.3928 23.2966 25 18.0715 25 11.6483C25 5.22512 19.3928 0 12.5 0ZM16.427 15.2065C16.0495 15.7193 15.5548 16.104 14.9064 16.3912C14.4282 16.5887 13.9303 16.71 13.416 16.7552V18.3209C13.416 18.5599 13.2086 18.7525 12.9528 18.7525H11.5663C11.3099 18.7525 11.1031 18.5593 11.1031 18.3209V16.6198C10.8421 16.56 10.5849 16.4765 10.3271 16.3668C9.63426 16.1034 9.0755 15.6742 8.68359 15.0968C8.29037 14.5608 8.07904 13.9347 8.04632 13.1951C8.03585 12.961 8.22756 12.7622 8.47815 12.7464L9.72324 12.6671C9.97383 12.6537 10.1858 12.8189 10.2153 13.047C10.265 13.4353 10.3821 13.7567 10.5548 13.9761C10.7491 14.2481 10.9984 14.4267 11.3753 14.5706C12.1735 14.898 13.189 14.8986 13.8917 14.6468C14.2031 14.5224 14.4236 14.3798 14.5695 14.2042C14.6945 14.0371 14.756 13.8615 14.756 13.6518C14.756 13.4548 14.7016 13.3097 14.5701 13.1524C14.5014 13.0671 14.3241 12.9073 13.8576 12.7336C13.6299 12.6635 13.0385 12.5068 12.1382 12.3037C11.0868 12.0592 10.4783 11.8739 10.1008 11.6831C9.53873 11.4063 9.11672 11.0612 8.85174 10.6594C8.58021 10.2503 8.44282 9.78324 8.44282 9.27231C8.44282 8.71626 8.60966 8.18644 8.9381 7.69746C9.27833 7.22067 9.78016 6.84632 10.3965 6.60488C10.6026 6.51769 10.8368 6.44452 11.1038 6.38599V4.94649C11.1038 4.70749 11.3112 4.51482 11.567 4.51482H12.9534C13.2099 4.51482 13.4166 4.7081 13.4166 4.94649V6.30978C13.8334 6.37441 14.2194 6.47257 14.5695 6.60244C15.2467 6.88595 15.738 7.26579 16.0887 7.77123C16.4401 8.24802 16.6383 8.82052 16.673 9.46254C16.6854 9.69788 16.4931 9.89908 16.2405 9.91493L14.966 9.9948C14.72 10.0107 14.5086 9.84726 14.4753 9.62228C14.404 9.13513 14.2293 8.79492 13.9407 8.58335C13.6129 8.32301 13.1373 8.20168 12.4725 8.20168C11.8215 8.20168 11.2987 8.31935 10.9997 8.53396C10.757 8.70834 10.6432 8.91808 10.6432 9.19366C10.6432 9.40584 10.7145 9.57228 10.8551 9.68935C10.9297 9.74422 11.3367 9.99115 12.6524 10.249C13.7392 10.4881 14.5381 10.7057 14.9758 10.8813C15.6733 11.174 16.1718 11.5514 16.4643 12.005C16.7908 12.4604 16.955 12.9701 16.955 13.5457C16.955 14.1444 16.7777 14.7029 16.427 15.2065Z" fill="#E21A1A"/>
</svg>
