<svg width="25" height="25" viewBox="0 0 25 25" fill="none" xmlns="http://www.w3.org/2000/svg">
<path d="M3.86652 4.75013C2.0473 6.78195 1.02877 9.40585 1.0007 12.1329C0.931556 18.3644 6.01925 23.4884 12.2507 23.5001C18.4734 23.5119 23.5007 18.471 23.5007 12.2501C23.5007 6.12474 18.6052 1.14017 12.5144 1.00013C12.4801 0.99903 12.4459 1.00484 12.4139 1.01722C12.382 1.02961 12.3528 1.0483 12.3282 1.0722C12.3036 1.09609 12.284 1.1247 12.2707 1.15631C12.2574 1.18792 12.2506 1.22189 12.2507 1.25619V6.15638" stroke="#E21A1A" stroke-width="1.875" stroke-linecap="round" stroke-linejoin="round"/>
<path d="M10.9256 13.5762L6.2967 6.95509C6.23266 6.86336 6.20295 6.75201 6.21278 6.64056C6.22261 6.52912 6.27135 6.42469 6.35046 6.34558C6.42957 6.26647 6.534 6.21773 6.64545 6.2079C6.75689 6.19807 6.86824 6.22777 6.95998 6.29181L13.5811 10.9207C13.9872 11.2132 14.2618 11.6538 14.3456 12.1473C14.4294 12.6407 14.3155 13.1472 14.0287 13.5574C13.7418 13.9675 13.305 14.2482 12.8128 14.3388C12.3206 14.4294 11.8125 14.3226 11.3985 14.0414C11.2154 13.9146 11.0554 13.7572 10.9256 13.5762Z" fill="#E21A1A"/>
</svg>
