<svg width="16" height="16" viewBox="0 0 16 16" fill="none" xmlns="http://www.w3.org/2000/svg">
<path fill-rule="evenodd" clip-rule="evenodd" d="M8.1834 15.0534C12.3403 15.0534 15.7101 11.6836 15.7101 7.52672C15.7101 3.36983 12.3403 0 8.1834 0C4.0265 0 0.656677 3.36983 0.656677 7.52672C0.656677 11.6836 4.0265 15.0534 8.1834 15.0534ZM7.18685 3.55897C7.46085 3.20629 7.83275 3.02794 8.20644 3.02794C8.58012 3.02794 8.95202 3.20629 9.22602 3.55897L11.4051 6.3665C11.9004 7.00301 11.9004 7.99265 11.4051 8.62916L9.22602 11.4367C8.67757 12.142 7.73531 12.142 7.18685 11.4367L5.00777 8.62916C4.5125 7.99265 4.5125 7.00301 5.00777 6.3665L7.18685 3.55897Z" fill="#EBEBEB"/>
</svg>
