<svg width="35" height="36" viewBox="0 0 35 36" fill="none" xmlns="http://www.w3.org/2000/svg">
<g clip-path="url(#clip0_33_197)">
<path d="M34.2008 0.457649V0.00514212H33.8502C23.4568 0.00514212 13.0635 0.0102842 2.67016 0C2.39968 0 2.2945 0.0874161 2.21436 0.344522C1.58825 2.30367 0.947119 4.25253 0.321014 6.20654C0.25089 6.42765 0.210819 6.67447 0.210819 6.90587C0.205811 15.0099 0.205811 23.1087 0.205811 31.2075C0.205811 31.3464 0.215828 31.4852 0.225846 31.6652H8.72084V35.9691C8.78595 35.9846 8.82101 35.9949 8.86108 35.9949C10.494 35.9949 12.1319 36.0051 13.7647 35.9846C13.92 35.9846 14.1003 35.8663 14.2205 35.748C15.4477 34.5036 16.6749 33.2541 17.882 31.9891C18.1324 31.7269 18.3829 31.6343 18.7335 31.6343C20.5617 31.6498 22.395 31.6343 24.2232 31.6498C24.5087 31.6498 24.704 31.5675 24.8994 31.3618C27.9047 28.2662 30.91 25.1758 33.9303 22.0906C34.1307 21.8849 34.2158 21.6843 34.2158 21.3912C34.2058 14.4134 34.2108 7.43037 34.2108 0.452507L34.2008 0.457649ZM30.8148 21.0159C29.192 22.6665 27.5841 24.3325 25.9613 25.978C25.826 26.1168 25.5856 26.2197 25.3953 26.2197C22.7857 26.2351 20.1811 26.2351 17.5715 26.2248C17.316 26.2248 17.1407 26.2968 16.9604 26.4819C15.7082 27.7777 14.4459 29.0633 13.1887 30.3539C13.1286 30.4157 13.0635 30.4774 12.9483 30.5905V26.2351H5.48513V3.24468H31.0603V3.64576C31.0603 9.22497 31.0603 14.8093 31.0603 20.3885C31.0603 20.6456 30.9951 20.8307 30.8148 21.0159Z" fill="white"/>
<path d="M14.0352 19.5811H17.1907V9.86768H14.0352V19.5811Z" fill="white"/>
<path d="M22.5752 19.5966H25.6707V9.86768H22.5752V19.5966Z" fill="white"/>
</g>
<defs>
<clipPath id="clip0_33_197">
<rect width="34" height="36" fill="white" transform="translate(0.205811)"/>
</clipPath>
</defs>
</svg>
