<svg width="46" height="46" viewBox="0 0 46 46" fill="none" xmlns="http://www.w3.org/2000/svg">
<path d="M23.2233 41.236C19.4043 41.236 15.8402 40.0848 12.8627 38.1258L5.62333 40.4387L7.97003 33.4433C5.71205 30.3437 4.38407 26.525 4.38407 22.4073C4.38407 12.0246 12.8296 3.57906 23.2123 3.57906C33.5951 3.57906 42.0406 12.0246 42.0406 22.4073C42.0406 32.7898 33.5951 41.2356 23.2123 41.2356H23.2233V41.236ZM23.2233 0.0146484C10.8587 0.0146484 0.830587 10.0437 0.830587 22.4077C0.830587 26.6359 2.00394 30.5986 4.04043 33.9747L0.000244141 45.9846L12.3979 42.011C15.7116 43.8433 19.4367 44.8032 23.2233 44.8004C35.5875 44.8004 45.616 34.7719 45.616 22.4077C45.6157 10.0437 35.5875 0.0146484 23.2233 0.0146484Z" fill="#FEFEFE"/>
<path d="M23.2233 3.5791C12.8406 3.5791 4.39502 12.0247 4.39502 22.4074C4.39502 26.525 5.72332 30.3437 7.9813 33.4433L5.6346 40.4387L12.8737 38.1258C15.8511 40.096 19.4043 41.2359 23.2342 41.2359C33.617 41.2359 42.0625 32.7901 42.0625 22.4077C42.0625 12.025 33.617 3.57941 23.2342 3.57941H23.2233V3.5791Z" fill="url(#paint0_linear_1202_58)"/>
<path d="M17.9652 13.1433C17.6001 12.2689 17.3233 12.2358 16.77 12.2133C16.5599 12.1997 16.3495 12.1924 16.139 12.1914C15.4192 12.1914 14.6667 12.4016 14.2128 12.8665C13.6595 13.431 12.2869 14.748 12.2869 17.449C12.2869 20.15 14.2571 22.7622 14.5227 23.1277C14.7994 23.4926 18.3639 29.1157 23.8982 31.4074C28.2261 33.2005 29.5104 33.0343 30.4954 32.8241C31.9343 32.5142 33.7386 31.4511 34.1926 30.1675C34.6465 28.8832 34.6465 27.7874 34.5134 27.5549C34.3806 27.3225 34.0151 27.1901 33.4619 26.913C32.9086 26.6362 30.2186 25.3079 29.7094 25.1308C29.2111 24.9427 28.7353 25.0092 28.3592 25.5406C27.8278 26.2822 27.3077 27.0351 26.8869 27.4887C26.5548 27.843 26.0122 27.8873 25.5586 27.699C24.9498 27.4447 23.2453 26.8464 21.142 24.9758C19.5147 23.526 18.4079 21.7219 18.0871 21.1796C17.7659 20.6264 18.054 20.3049 18.3083 20.0063C18.585 19.6629 18.8506 19.4196 19.1274 19.0984C19.4041 18.7776 19.5591 18.6114 19.7362 18.235C19.9246 17.8698 19.7915 17.4934 19.6587 17.2166C19.526 16.9398 18.4192 14.2388 17.9652 13.1433V13.1433Z" fill="#FEFEFE"/>
<defs>
<linearGradient id="paint0_linear_1202_58" x1="-137.133" y1="-59.5032" x2="-137.133" y2="-58.1216" gradientUnits="userSpaceOnUse">
<stop stop-color="#6EBF61"/>
<stop offset="0.231" stop-color="#50A557"/>
<stop offset="0.522" stop-color="#2A904F"/>
<stop offset="0.812" stop-color="#50A557"/>
<stop offset="1" stop-color="#6EBF63"/>
</linearGradient>
</defs>
</svg>
